<svg width="70" height="25" viewBox="0 0 70 25" fill="none" xmlns="http://www.w3.org/2000/svg">
<path d="M4.72277 15.496V10.7848H0V9.8198L4.55275 0.170285H5.724V9.85765H7.49976V10.7848H5.724V15.496H4.72277ZM1.0579 9.85765H4.72277V1.64609L1.0579 9.85765Z" fill="white"/>
<path d="M9.27862 15.496V14.7392L13.5291 8.26831C13.844 7.78899 14.1399 7.32228 14.417 6.86819C14.6941 6.40148 14.9145 5.91585 15.0782 5.4113C15.2545 4.90675 15.3427 4.33913 15.3427 3.70844C15.3427 2.81287 15.1411 2.1128 14.7381 1.60825C14.3477 1.1037 13.7747 0.851428 13.0191 0.851428C12.3012 0.851428 11.7471 0.996486 11.3566 1.2866C10.9788 1.57672 10.7143 1.98036 10.5632 2.49752C10.4247 3.01469 10.3491 3.60753 10.3365 4.27606V4.52203H9.35418V4.2193C9.35418 3.27327 9.48012 2.49122 9.732 1.87314C9.98389 1.24245 10.3743 0.775746 10.9032 0.473016C11.4448 0.157672 12.1375 0 12.9813 0C14.0895 0 14.9271 0.340571 15.4938 1.02171C16.0605 1.70286 16.3439 2.64889 16.3439 3.85981C16.3439 4.46527 16.2494 5.03919 16.0605 5.58158C15.8716 6.11136 15.6323 6.62853 15.3427 7.13308C15.053 7.62501 14.7507 8.11064 14.4359 8.58996L10.431 14.6446H16.0416V15.496H9.27862Z" fill="white"/>
<path d="M18.4646 19.0909V4.55987H21.5438V5.35454C22.2806 4.69231 23.1495 4.37067 23.9052 4.37067C25.5676 4.37067 26.2477 5.80863 26.2477 7.58717V12.2984C26.2477 14.3418 25.4165 15.6852 23.8674 15.6852C23.074 15.6852 22.2617 15.2879 21.5438 14.6635V19.0909H18.4646ZM22.3561 13.6985C22.9417 13.6985 23.1684 13.1498 23.1684 12.4687V7.36012C23.1684 6.73574 22.9417 6.22489 22.4128 6.22489C22.0916 6.22489 21.7894 6.37625 21.5438 6.6033V13.4147C21.8083 13.585 22.0727 13.6985 22.3561 13.6985Z" fill="white"/>
<path d="M31.5916 15.6852C29.2491 15.6852 27.7756 14.4932 27.7756 12.1092V7.94666C27.7756 5.56266 29.2491 4.37067 31.5916 4.37067C33.9152 4.37067 35.4265 5.56266 35.4265 7.94666V12.1092C35.4265 14.4932 33.9152 15.6852 31.5916 15.6852ZM31.6105 13.6418C32.215 13.6418 32.3851 13.1498 32.3851 12.3173V7.73854C32.3851 6.90603 32.215 6.41409 31.6105 6.41409C31.006 6.41409 30.8171 6.92495 30.8171 7.73854V12.3173C30.8171 13.1498 31.006 13.6418 31.6105 13.6418Z" fill="white"/>
<path d="M37.1343 15.496V4.55987H40.2135V5.65727C41.0069 4.8626 41.8759 4.37067 42.8394 4.37067C44.1806 4.37067 44.8607 5.46806 44.8607 6.92495V15.496H41.8003V7.36012C41.8003 6.83035 41.6492 6.54654 41.1769 6.54654C40.9314 6.54654 40.5724 6.6979 40.2135 6.94387V15.496H37.1343Z" fill="white"/>
<path d="M50.0904 15.6095C47.6157 15.6095 47.0301 14.4932 47.0301 12.5255V6.58438H45.9722V4.55987H47.0301V1.22984H50.1471V4.55987H51.6962V6.58438H50.1471V12.2227C50.1471 12.8471 50.5438 13.112 51.1105 13.112C51.4317 13.112 51.7151 13.0742 51.9418 13.0363V15.4581C51.6017 15.5149 50.8272 15.6095 50.0904 15.6095Z" fill="white"/>
<path d="M56.9765 15.6852C54.634 15.6852 53.1605 14.4932 53.1605 12.1092V7.94666C53.1605 5.56266 54.634 4.37067 56.9765 4.37067C59.3001 4.37067 60.8114 5.56266 60.8114 7.94666V12.1092C60.8114 14.4932 59.3001 15.6852 56.9765 15.6852ZM56.9954 13.6418C57.5999 13.6418 57.77 13.1498 57.77 12.3173V7.73854C57.77 6.90603 57.5999 6.41409 56.9954 6.41409C56.3909 6.41409 56.202 6.92495 56.202 7.73854V12.3173C56.202 13.1498 56.3909 13.6418 56.9954 13.6418Z" fill="white"/>
<path d="M66.4296 15.7041C65.4976 15.7041 64.7735 15.5086 64.2571 15.1176C63.7408 14.7266 63.3818 14.1905 63.1803 13.5093C62.9788 12.8282 62.8781 12.0524 62.8781 11.1821V4.48419C62.8781 3.60123 62.9851 2.82548 63.1992 2.15695C63.4133 1.48842 63.7785 0.964952 64.2949 0.58654C64.8238 0.195513 65.5354 0 66.4296 0C67.3364 0 68.0479 0.195513 68.5643 0.58654C69.0932 0.964952 69.4648 1.48842 69.6789 2.15695C69.893 2.82548 70 3.60123 70 4.48419V11.1821C70 12.0524 69.8993 12.8282 69.6977 13.5093C69.4962 14.1905 69.1373 14.7266 68.621 15.1176C68.1046 15.5086 67.3741 15.7041 66.4296 15.7041ZM66.4296 14.9284C67.0845 14.9284 67.5945 14.777 67.9598 14.4743C68.325 14.1589 68.5832 13.7364 68.7343 13.2066C68.8854 12.6642 68.961 12.0461 68.961 11.3524V4.33282C68.961 3.63907 68.8854 3.0273 68.7343 2.49752C68.5832 1.95513 68.325 1.53257 67.9598 1.22984C67.5945 0.927111 67.0845 0.775745 66.4296 0.775745C65.7873 0.775745 65.2835 0.927111 64.9183 1.22984C64.5531 1.53257 64.2886 1.95513 64.1249 2.49752C63.9737 3.0273 63.8982 3.63907 63.8982 4.33282V11.3524C63.8982 12.0461 63.9737 12.6642 64.1249 13.2066C64.2886 13.7364 64.5531 14.1589 64.9183 14.4743C65.2835 14.777 65.7873 14.9284 66.4296 14.9284Z" fill="white"/>
<path fill-rule="evenodd" clip-rule="evenodd" d="M45.1374 24.1792C40.5679 24.2521 35.6296 22.7646 33.0908 19.1533L34.8855 17.8181C36.8134 20.5605 40.8633 21.9687 45.103 21.901C47.1888 21.8678 49.2325 21.4743 50.9543 20.7649C52.6847 20.052 54.0178 19.0513 54.7929 17.8542L56.6363 19.1172C55.5365 20.8158 53.7747 22.0572 51.7778 22.88C49.7722 23.7063 47.4562 24.1422 45.1374 24.1792Z" fill="white"/>
</svg>
